<svg xmlns="http://www.w3.org/2000/svg"  viewBox="0 0 24 24" width="24px" height="24px">
    <path fill-rule="evenodd" clip-rule="evenodd" d="M12.505 5.672a4.968 4.968 0 00-1.985-.645 4 4 0 116.521 4.572A8.003 8.003 0 0122 17a1 1 0 01-1 1h-2.223a8.936 8.936 0 00-.713-2h1.853a6.005 6.005 0 00-5.03-4.935 5.016 5.016 0 00-.03-2.257 2 2 0 10-2.352-3.136zM6 10c0 .992.361 1.9.959 2.598A8.002 8.002 0 002 20a1 1 0 001 1h14a1 1 0 001-1 8.002 8.002 0 00-4.959-7.402A4 4 0 106 10zm4 2a2 2 0 100-4 2 2 0 000 4zm0 2a6.002 6.002 0 015.917 5H4.083A6.002 6.002 0 0110 14z" fill="rgb(66, 82, 110)"></path>
</svg>
