<svg xmlns="http://www.w3.org/2000/svg"  viewBox="0 0 24 24" width="24px" height="24px">
    <path d="M7 3a1 1 0 011-1h1a1 1 0 010 2H8a1 1 0 01-1-1zM3 7a1 1 0 00-1 1v1a1 1 0 002 0V8a1 1 0 00-1-1zm-1 5a1 1 0 112 0v1a1 1 0 11-2 0v-1zm0 4a1 1 0 112 0v3a2 2 0 01-2-2v-1zM12 2a1 1 0 100 2h1a1 1 0 100-2h-1zm3 1a1 1 0 011-1h1a2 2 0 012 2h-3a1 1 0 01-1-1zM4 2a2 2 0 00-2 2v1a1 1 0 002 0V4h1a1 1 0 000-2H4z" fill="rgb(66, 82, 110)"></path><path fill-rule="evenodd" clip-rule="evenodd" d="M7 5a2 2 0 00-2 2v12a2 2 0 002 2h12a2 2 0 002-2V7a2 2 0 00-2-2H7zm1 2a1 1 0 00-1 1v9a1 1 0 001 1h3a1 1 0 001-1V8a1 1 0 00-1-1H8zm6 1a1 1 0 011-1h3a1 1 0 011 1v5a1 1 0 01-1 1h-3a1 1 0 01-1-1V8z" fill="rgb(66, 82, 110)"></path>
</svg>
