<svg xmlns="http://www.w3.org/2000/svg" xmlns:xlink="http://www.w3.org/1999/xlink" version="1.1" id="Layer_1" x="0px" y="0px" viewBox="0 0 175.3 51.3" style="enable-background:new 0 0 175.3 51.3;" xml:space="preserve"><style type="text/css">
	.st0{fill:#FFFFFF;}
</style><path class="st0" d="M30.4,12.3l3.7-6.4c1.1-1.9,0.4-4.3-1.4-5.4c-1.9-1.1-4.3-0.4-5.4,1.4l-3.7,6.4C15.6,5.9,6.8,9.1,2.4,16.6  c-2.8,4.8-3.1,10.2-1.4,15l6.9-11.9c1.6-2.7,4.1-4.7,7.2-5.5c3.1-0.8,6.2-0.4,9,1.2c5.6,3.3,7.6,10.5,4.3,16.1  c-3.3,5.6-10.5,7.6-16.2,4.3l3.9-6.8c1.9,1.1,4.3,0.4,5.4-1.4c1.1-1.9,0.4-4.3-1.4-5.4c-1.9-1.1-4.3-0.4-5.4,1.4L2.2,45.4  c-1.1,1.9-0.4,4.3,1.4,5.4c1.9,1.1,4.3,0.4,5.4-1.4l3.7-6.4c7.9,2.5,16.8-0.7,21.1-8.2C38.2,27.2,36.6,18,30.4,12.3z"></path><path class="st0" d="M47.1,17h6.1c3.5,0,6.5,1.8,6.5,5.8s-2.9,5.8-6.5,5.8h-2.5v5.7h-3.6V17z M53.1,25.5c1.8,0,2.9-0.8,2.9-2.7  c0-1.9-1.2-2.7-2.9-2.7h-2.4v5.4H53.1z"></path><path class="st0" d="M64.9,17h11.5v3.1h-7.9v4h7v3.1h-7v4h8.3v3.1H64.9V17z"></path><path class="st0" d="M82.8,17h3.6v14.2h7.9v3.1H82.8V17z"></path><path class="st0" d="M98.2,25.7c0-5.1,4-8.9,9-8.9c5,0,9,3.8,9,8.9c0,5.1-4,8.9-9,8.9C102.2,34.6,98.2,30.8,98.2,25.7z M112.5,25.7  c0-3.2-2.1-5.7-5.3-5.7c-3.2,0-5.3,2.5-5.3,5.7s2.1,5.7,5.3,5.7C110.3,31.4,112.5,28.9,112.5,25.7z"></path><path class="st0" d="M125,20.1h-5V17h13.5v3.1h-5v14.2h-3.6L125,20.1L125,20.1z"></path><path class="st0" d="M137.3,25.7c0-5.1,4-8.9,9-8.9c5,0,9,3.8,9,8.9c0,5.1-4,8.9-9,8.9C141.3,34.6,137.3,30.8,137.3,25.7z   M151.6,25.7c0-3.2-2.1-5.7-5.3-5.7c-3.2,0-5.3,2.5-5.3,5.7s2.1,5.7,5.3,5.7C149.4,31.4,151.6,28.9,151.6,25.7z"></path><path class="st0" d="M166.2,26.3c-0.9-0.8-2.1-2.4-2.1-2.4s0.3,1.9,0.3,3.2v7.3H161V16.9h0.4l8.8,8.2c0.8,0.8,2,2.4,2,2.4  s-0.2-2-0.2-3.2V17h3.4v17.5h-0.4L166.2,26.3z"></path></svg>