<svg id="svg" version="1.1" xmlns="http://www.w3.org/2000/svg" xmlns:xlink="http://www.w3.org/1999/xlink" width="48px" height="48px" viewBox="0, 0, 400,513.8888888888889"><g id="svgg"><path id="path0" d="M234.462 210.615 C 231.520 214.489,224.382 223.909,218.599 231.548 C 212.817 239.187,205.785 248.472,202.974 252.183 C 196.762 260.380,186.425 274.071,174.809 289.484 C 162.736 305.505,161.080 307.655,160.297 308.333 C 159.919 308.661,159.318 309.509,158.961 310.218 C 158.605 310.928,158.172 311.508,158.000 311.508 C 157.828 311.508,157.389 312.133,157.024 312.897 C 156.384 314.240,156.388 314.286,157.149 314.286 C 157.584 314.286,157.937 314.020,157.937 313.690 C 157.937 313.250,158.399 313.095,159.722 313.095 C 161.045 313.095,161.508 312.941,161.508 312.500 C 161.508 312.059,161.971 311.905,163.294 311.905 C 164.616 311.905,165.079 311.750,165.079 311.310 C 165.079 310.847,165.608 310.714,167.460 310.714 C 169.312 310.714,169.841 310.582,169.841 310.119 C 169.841 309.689,170.282 309.524,171.429 309.524 C 172.575 309.524,173.016 309.358,173.016 308.929 C 173.016 308.488,173.479 308.333,174.802 308.333 C 176.124 308.333,176.587 308.179,176.587 307.738 C 176.587 307.297,177.050 307.143,178.373 307.143 C 179.894 307.143,180.159 307.025,180.159 306.349 C 180.159 305.673,180.423 305.556,181.944 305.556 C 183.267 305.556,183.730 305.401,183.730 304.960 C 183.730 304.519,184.193 304.365,185.516 304.365 C 186.839 304.365,187.302 304.211,187.302 303.770 C 187.302 303.307,187.831 303.175,189.683 303.175 C 191.534 303.175,192.063 303.042,192.063 302.579 C 192.063 302.138,192.526 301.984,193.849 301.984 C 195.172 301.984,195.635 301.830,195.635 301.389 C 195.635 300.948,196.098 300.794,197.421 300.794 C 198.743 300.794,199.206 300.639,199.206 300.198 C 199.206 299.769,199.647 299.603,200.794 299.603 C 201.940 299.603,202.381 299.438,202.381 299.008 C 202.381 298.567,202.844 298.413,204.167 298.413 C 205.489 298.413,205.952 298.258,205.952 297.817 C 205.952 297.377,206.415 297.222,207.738 297.222 C 209.061 297.222,209.524 297.068,209.524 296.627 C 209.524 296.186,209.987 296.032,211.310 296.032 C 212.632 296.032,213.095 295.877,213.095 295.437 C 213.095 294.974,213.624 294.841,215.476 294.841 C 217.593 294.841,217.857 294.753,217.857 294.048 C 217.857 293.372,218.122 293.254,219.643 293.254 C 220.966 293.254,221.429 293.100,221.429 292.659 C 221.429 292.218,221.892 292.063,223.214 292.063 C 224.537 292.063,225.000 291.909,225.000 291.468 C 225.000 291.027,225.463 290.873,226.786 290.873 C 228.108 290.873,228.571 290.719,228.571 290.278 C 228.571 289.848,229.012 289.683,230.159 289.683 C 231.305 289.683,231.746 289.517,231.746 289.087 C 231.746 288.646,232.209 288.492,233.532 288.492 C 234.854 288.492,235.317 288.338,235.317 287.897 C 235.317 287.434,235.847 287.302,237.698 287.302 C 239.550 287.302,240.079 287.169,240.079 286.706 C 240.079 286.265,240.542 286.111,241.865 286.111 C 243.188 286.111,243.651 285.957,243.651 285.516 C 243.651 285.075,244.114 284.921,245.437 284.921 C 246.759 284.921,247.222 284.766,247.222 284.325 C 247.222 283.884,247.685 283.730,249.008 283.730 C 250.331 283.730,250.794 283.576,250.794 283.135 C 250.794 282.694,251.257 282.540,252.579 282.540 C 254.101 282.540,254.365 282.422,254.365 281.746 C 254.365 281.070,254.630 280.952,256.151 280.952 C 257.474 280.952,257.937 280.798,257.937 280.357 C 257.937 279.900,258.444 279.762,260.119 279.762 C 261.795 279.762,262.302 279.624,262.302 279.167 C 262.302 278.726,262.765 278.571,264.087 278.571 C 265.410 278.571,265.873 278.417,265.873 277.976 C 265.873 277.535,266.336 277.381,267.659 277.381 C 268.981 277.381,269.444 277.227,269.444 276.786 C 269.444 276.345,269.907 276.190,271.230 276.190 C 272.553 276.190,273.016 276.036,273.016 275.595 C 273.016 275.154,273.479 275.000,274.802 275.000 C 276.124 275.000,276.587 274.846,276.587 274.405 C 276.587 273.964,277.050 273.810,278.373 273.810 C 279.696 273.810,280.159 273.655,280.159 273.214 C 280.159 272.751,280.688 272.619,282.540 272.619 C 284.392 272.619,284.921 272.487,284.921 272.024 C 284.921 271.583,285.384 271.429,286.706 271.429 C 288.029 271.429,288.492 271.274,288.492 270.833 C 288.492 270.403,288.933 270.238,290.079 270.238 C 291.402 270.238,291.667 270.106,291.667 269.444 C 291.667 268.768,291.931 268.651,293.452 268.651 C 294.775 268.651,295.238 268.496,295.238 268.056 C 295.238 267.615,295.701 267.460,297.024 267.460 C 298.347 267.460,298.810 267.306,298.810 266.865 C 298.810 266.424,299.272 266.270,300.595 266.270 C 301.918 266.270,302.381 266.116,302.381 265.675 C 302.381 265.234,302.844 265.079,304.167 265.079 C 305.489 265.079,305.952 264.925,305.952 264.484 C 305.952 264.021,306.481 263.889,308.333 263.889 C 310.185 263.889,310.714 263.757,310.714 263.294 C 310.714 262.853,311.177 262.698,312.500 262.698 C 313.823 262.698,314.286 262.544,314.286 262.103 C 314.286 261.662,314.749 261.508,316.071 261.508 C 317.394 261.508,317.857 261.354,317.857 260.913 C 317.857 260.483,318.298 260.317,319.444 260.317 C 320.591 260.317,321.032 260.152,321.032 259.722 C 321.032 259.281,321.495 259.127,322.817 259.127 C 324.140 259.127,324.603 258.973,324.603 258.532 C 324.603 258.091,325.066 257.937,326.389 257.937 C 327.910 257.937,328.175 257.819,328.175 257.143 C 328.175 256.437,328.439 256.349,330.556 256.349 C 332.407 256.349,332.937 256.217,332.937 255.754 C 332.937 255.313,333.399 255.159,334.722 255.159 C 336.045 255.159,336.508 255.004,336.508 254.563 C 336.508 254.123,336.971 253.968,338.294 253.968 C 339.616 253.968,340.079 253.814,340.079 253.373 C 340.079 252.932,340.542 252.778,341.865 252.778 C 343.188 252.778,343.651 252.623,343.651 252.183 C 343.651 251.742,344.114 251.587,345.437 251.587 C 346.759 251.587,347.222 251.433,347.222 250.992 C 347.222 250.562,347.663 250.397,348.810 250.397 C 349.956 250.397,350.397 250.231,350.397 249.802 C 350.397 249.339,350.926 249.206,352.778 249.206 C 354.630 249.206,355.159 249.074,355.159 248.611 C 355.159 248.170,355.622 248.016,356.944 248.016 C 358.267 248.016,358.730 247.862,358.730 247.421 C 358.730 246.980,359.193 246.825,360.516 246.825 C 361.839 246.825,362.302 246.671,362.302 246.230 C 362.302 245.789,362.765 245.635,364.087 245.635 C 365.608 245.635,365.873 245.517,365.873 244.841 C 365.873 244.165,366.138 244.048,367.659 244.048 C 368.981 244.048,369.444 243.893,369.444 243.452 C 369.444 243.011,369.907 242.857,371.230 242.857 C 372.553 242.857,373.016 242.703,373.016 242.262 C 373.016 241.821,373.479 241.667,374.802 241.667 C 376.124 241.667,376.587 241.512,376.587 241.071 C 376.587 240.614,377.094 240.476,378.770 240.476 C 380.445 240.476,380.952 240.338,380.952 239.881 C 380.952 239.440,381.415 239.286,382.738 239.286 C 384.061 239.286,384.524 239.131,384.524 238.690 C 384.524 238.250,384.987 238.095,386.310 238.095 C 387.632 238.095,388.095 237.941,388.095 237.500 C 388.095 237.059,388.558 236.905,389.881 236.905 C 391.204 236.905,391.667 236.750,391.667 236.310 C 391.667 235.869,392.130 235.714,393.452 235.714 C 394.775 235.714,395.238 235.560,395.238 235.119 C 395.238 234.703,395.658 234.524,396.635 234.524 L 398.032 234.524 397.184 236.210 C 396.718 237.138,396.044 238.251,395.688 238.684 C 395.074 239.429,395.078 239.440,395.767 238.906 C 398.504 236.779,401.736 219.841,399.405 219.841 C 398.964 219.841,398.810 219.378,398.810 218.056 C 398.810 216.766,398.651 216.270,398.238 216.270 C 397.865 216.270,397.624 215.755,397.544 214.782 C 397.453 213.688,397.184 213.190,396.528 212.902 C 395.917 212.634,395.635 212.170,395.635 211.432 C 395.635 210.765,395.295 210.115,394.742 209.726 C 394.251 209.381,393.224 208.657,392.460 208.119 C 385.620 203.300,390.561 203.571,309.810 203.571 L 239.812 203.571 234.462 210.615 " stroke="none" fill="#085dd7" fill-rule="evenodd"></path><path id="path1" d="M375.397 263.294 C 375.397 263.735,374.934 263.889,373.611 263.889 C 372.288 263.889,371.825 264.043,371.825 264.484 C 371.825 264.947,371.296 265.079,369.444 265.079 C 367.593 265.079,367.063 265.212,367.063 265.675 C 367.063 266.116,366.601 266.270,365.278 266.270 C 363.955 266.270,363.492 266.424,363.492 266.865 C 363.492 267.306,363.029 267.460,361.706 267.460 C 360.384 267.460,359.921 267.615,359.921 268.056 C 359.921 268.496,359.458 268.651,358.135 268.651 C 356.614 268.651,356.349 268.768,356.349 269.444 C 356.349 270.121,356.085 270.238,354.563 270.238 C 353.241 270.238,352.778 270.392,352.778 270.833 C 352.778 271.263,352.337 271.429,351.190 271.429 C 350.044 271.429,349.603 271.594,349.603 272.024 C 349.603 272.465,349.140 272.619,347.817 272.619 C 346.495 272.619,346.032 272.773,346.032 273.214 C 346.032 273.677,345.503 273.810,343.651 273.810 C 341.799 273.810,341.270 273.942,341.270 274.405 C 341.270 274.846,340.807 275.000,339.484 275.000 C 338.161 275.000,337.698 275.154,337.698 275.595 C 337.698 276.036,337.235 276.190,335.913 276.190 C 334.590 276.190,334.127 276.345,334.127 276.786 C 334.127 277.227,333.664 277.381,332.341 277.381 C 331.019 277.381,330.556 277.535,330.556 277.976 C 330.556 278.417,330.093 278.571,328.770 278.571 C 327.447 278.571,326.984 278.726,326.984 279.167 C 326.984 279.608,326.521 279.762,325.198 279.762 C 323.876 279.762,323.413 279.916,323.413 280.357 C 323.413 280.814,322.906 280.952,321.230 280.952 C 319.312 280.952,319.048 281.049,319.048 281.746 C 319.048 282.422,318.783 282.540,317.262 282.540 C 315.939 282.540,315.476 282.694,315.476 283.135 C 315.476 283.576,315.013 283.730,313.690 283.730 C 312.368 283.730,311.905 283.884,311.905 284.325 C 311.905 284.766,311.442 284.921,310.119 284.921 C 308.796 284.921,308.333 285.075,308.333 285.516 C 308.333 285.957,307.870 286.111,306.548 286.111 C 305.225 286.111,304.762 286.265,304.762 286.706 C 304.762 287.147,304.299 287.302,302.976 287.302 C 301.653 287.302,301.190 287.456,301.190 287.897 C 301.190 288.360,300.661 288.492,298.810 288.492 C 296.958 288.492,296.429 288.624,296.429 289.087 C 296.429 289.528,295.966 289.683,294.643 289.683 C 293.320 289.683,292.857 289.837,292.857 290.278 C 292.857 290.708,292.416 290.873,291.270 290.873 C 290.123 290.873,289.683 291.038,289.683 291.468 C 289.683 291.909,289.220 292.063,287.897 292.063 C 286.574 292.063,286.111 292.218,286.111 292.659 C 286.111 293.100,285.648 293.254,284.325 293.254 C 282.804 293.254,282.540 293.372,282.540 294.048 C 282.540 294.724,282.275 294.841,280.754 294.841 C 279.431 294.841,278.968 294.996,278.968 295.437 C 278.968 295.877,278.505 296.032,277.183 296.032 C 275.860 296.032,275.397 296.186,275.397 296.627 C 275.397 297.090,274.868 297.222,273.016 297.222 C 271.164 297.222,270.635 297.354,270.635 297.817 C 270.635 298.258,270.172 298.413,268.849 298.413 C 267.526 298.413,267.063 298.567,267.063 299.008 C 267.063 299.449,266.601 299.603,265.278 299.603 C 263.955 299.603,263.492 299.757,263.492 300.198 C 263.492 300.639,263.029 300.794,261.706 300.794 C 260.384 300.794,259.921 300.948,259.921 301.389 C 259.921 301.819,259.480 301.984,258.333 301.984 C 257.187 301.984,256.746 302.149,256.746 302.579 C 256.746 303.020,256.283 303.175,254.960 303.175 C 253.638 303.175,253.175 303.329,253.175 303.770 C 253.175 304.233,252.646 304.365,250.794 304.365 C 248.942 304.365,248.413 304.497,248.413 304.960 C 248.413 305.401,247.950 305.556,246.627 305.556 C 245.106 305.556,244.841 305.673,244.841 306.349 C 244.841 307.025,244.577 307.143,243.056 307.143 C 241.733 307.143,241.270 307.297,241.270 307.738 C 241.270 308.179,240.807 308.333,239.484 308.333 C 238.161 308.333,237.698 308.488,237.698 308.929 C 237.698 309.369,237.235 309.524,235.913 309.524 C 234.590 309.524,234.127 309.678,234.127 310.119 C 234.127 310.560,233.664 310.714,232.341 310.714 C 231.019 310.714,230.556 310.869,230.556 311.310 C 230.556 311.766,230.049 311.905,228.373 311.905 C 226.698 311.905,226.190 312.043,226.190 312.500 C 226.190 312.941,225.728 313.095,224.405 313.095 C 223.082 313.095,222.619 313.250,222.619 313.690 C 222.619 314.131,222.156 314.286,220.833 314.286 C 219.511 314.286,219.048 314.440,219.048 314.881 C 219.048 315.322,218.585 315.476,217.262 315.476 C 215.939 315.476,215.476 315.631,215.476 316.071 C 215.476 316.512,215.013 316.667,213.690 316.667 C 212.368 316.667,211.905 316.821,211.905 317.262 C 211.905 317.703,211.442 317.857,210.119 317.857 C 208.598 317.857,208.333 317.975,208.333 318.651 C 208.333 319.356,208.069 319.444,205.952 319.444 C 204.101 319.444,203.571 319.577,203.571 320.040 C 203.571 320.481,203.108 320.635,201.786 320.635 C 200.463 320.635,200.000 320.789,200.000 321.230 C 200.000 321.660,199.559 321.825,198.413 321.825 C 197.266 321.825,196.825 321.991,196.825 322.421 C 196.825 322.862,196.362 323.016,195.040 323.016 C 193.717 323.016,193.254 323.170,193.254 323.611 C 193.254 324.052,192.791 324.206,191.468 324.206 C 190.146 324.206,189.683 324.361,189.683 324.802 C 189.683 325.243,189.220 325.397,187.897 325.397 C 186.574 325.397,186.111 325.551,186.111 325.992 C 186.111 326.433,185.648 326.587,184.325 326.587 C 183.003 326.587,182.540 326.742,182.540 327.183 C 182.540 327.646,182.011 327.778,180.159 327.778 C 178.307 327.778,177.778 327.910,177.778 328.373 C 177.778 328.814,177.315 328.968,175.992 328.968 C 174.669 328.968,174.206 329.123,174.206 329.563 C 174.206 330.004,173.743 330.159,172.421 330.159 C 170.899 330.159,170.635 330.276,170.635 330.952 C 170.635 331.614,170.370 331.746,169.048 331.746 C 167.901 331.746,167.460 331.911,167.460 332.341 C 167.460 332.782,166.997 332.937,165.675 332.937 C 164.352 332.937,163.889 333.091,163.889 333.532 C 163.889 333.973,163.426 334.127,162.103 334.127 C 160.780 334.127,160.317 334.281,160.317 334.722 C 160.317 335.185,159.788 335.317,157.937 335.317 C 156.085 335.317,155.556 335.450,155.556 335.913 C 155.556 336.354,155.093 336.508,153.770 336.508 C 152.447 336.508,151.984 336.662,151.984 337.103 C 151.984 337.544,151.521 337.698,150.198 337.698 C 148.876 337.698,148.413 337.853,148.413 338.294 C 148.413 338.735,147.950 338.889,146.627 338.889 C 145.304 338.889,144.841 339.043,144.841 339.484 C 144.841 339.874,144.451 340.079,143.714 340.079 C 142.729 340.079,142.523 340.293,142.092 341.766 C 141.820 342.693,141.187 344.167,140.684 345.040 C 139.841 346.504,139.046 348.874,136.357 357.937 C 135.061 362.303,134.677 364.683,135.267 364.683 C 135.513 364.683,135.714 364.415,135.714 364.087 C 135.714 363.646,136.177 363.492,137.500 363.492 C 138.823 363.492,139.286 363.338,139.286 362.897 C 139.286 362.467,139.727 362.302,140.873 362.302 C 142.019 362.302,142.460 362.136,142.460 361.706 C 142.460 361.265,142.923 361.111,144.246 361.111 C 145.569 361.111,146.032 360.957,146.032 360.516 C 146.032 360.053,146.561 359.921,148.413 359.921 C 150.265 359.921,150.794 359.788,150.794 359.325 C 150.794 358.884,151.257 358.730,152.579 358.730 C 153.902 358.730,154.365 358.576,154.365 358.135 C 154.365 357.694,154.828 357.540,156.151 357.540 C 157.474 357.540,157.937 357.385,157.937 356.944 C 157.937 356.504,158.399 356.349,159.722 356.349 C 161.243 356.349,161.508 356.232,161.508 355.556 C 161.508 354.879,161.772 354.762,163.294 354.762 C 164.616 354.762,165.079 354.608,165.079 354.167 C 165.079 353.726,165.542 353.571,166.865 353.571 C 168.188 353.571,168.651 353.417,168.651 352.976 C 168.651 352.519,169.158 352.381,170.833 352.381 C 172.509 352.381,173.016 352.243,173.016 351.786 C 173.016 351.345,173.479 351.190,174.802 351.190 C 176.124 351.190,176.587 351.036,176.587 350.595 C 176.587 350.154,177.050 350.000,178.373 350.000 C 179.696 350.000,180.159 349.846,180.159 349.405 C 180.159 348.964,180.622 348.810,181.944 348.810 C 183.267 348.810,183.730 348.655,183.730 348.214 C 183.730 347.773,184.193 347.619,185.516 347.619 C 186.839 347.619,187.302 347.465,187.302 347.024 C 187.302 346.583,187.765 346.429,189.087 346.429 C 190.410 346.429,190.873 346.274,190.873 345.833 C 190.873 345.392,191.336 345.238,192.659 345.238 C 193.981 345.238,194.444 345.084,194.444 344.643 C 194.444 344.180,194.974 344.048,196.825 344.048 C 198.942 344.048,199.206 343.959,199.206 343.254 C 199.206 342.593,199.471 342.460,200.794 342.460 C 201.940 342.460,202.381 342.295,202.381 341.865 C 202.381 341.424,202.844 341.270,204.167 341.270 C 205.489 341.270,205.952 341.116,205.952 340.675 C 205.952 340.234,206.415 340.079,207.738 340.079 C 209.061 340.079,209.524 339.925,209.524 339.484 C 209.524 339.043,209.987 338.889,211.310 338.889 C 212.632 338.889,213.095 338.735,213.095 338.294 C 213.095 337.853,213.558 337.698,214.881 337.698 C 216.204 337.698,216.667 337.544,216.667 337.103 C 216.667 336.640,217.196 336.508,219.048 336.508 C 220.899 336.508,221.429 336.376,221.429 335.913 C 221.429 335.472,221.892 335.317,223.214 335.317 C 224.537 335.317,225.000 335.163,225.000 334.722 C 225.000 334.281,225.463 334.127,226.786 334.127 C 228.108 334.127,228.571 333.973,228.571 333.532 C 228.571 333.102,229.012 332.937,230.159 332.937 C 231.305 332.937,231.746 332.771,231.746 332.341 C 231.746 331.900,232.209 331.746,233.532 331.746 C 235.053 331.746,235.317 331.628,235.317 330.952 C 235.317 330.276,235.582 330.159,237.103 330.159 C 238.426 330.159,238.889 330.004,238.889 329.563 C 238.889 329.101,239.418 328.968,241.270 328.968 C 243.122 328.968,243.651 328.836,243.651 328.373 C 243.651 327.932,244.114 327.778,245.437 327.778 C 246.759 327.778,247.222 327.623,247.222 327.183 C 247.222 326.742,247.685 326.587,249.008 326.587 C 250.331 326.587,250.794 326.433,250.794 325.992 C 250.794 325.551,251.257 325.397,252.579 325.397 C 253.902 325.397,254.365 325.243,254.365 324.802 C 254.365 324.361,254.828 324.206,256.151 324.206 C 257.474 324.206,257.937 324.052,257.937 323.611 C 257.937 323.181,258.377 323.016,259.524 323.016 C 260.670 323.016,261.111 322.851,261.111 322.421 C 261.111 321.958,261.640 321.825,263.492 321.825 C 265.344 321.825,265.873 321.693,265.873 321.230 C 265.873 320.789,266.336 320.635,267.659 320.635 C 268.981 320.635,269.444 320.481,269.444 320.040 C 269.444 319.599,269.907 319.444,271.230 319.444 C 272.751 319.444,273.016 319.327,273.016 318.651 C 273.016 317.975,273.280 317.857,274.802 317.857 C 276.124 317.857,276.587 317.703,276.587 317.262 C 276.587 316.821,277.050 316.667,278.373 316.667 C 279.696 316.667,280.159 316.512,280.159 316.071 C 280.159 315.631,280.622 315.476,281.944 315.476 C 283.267 315.476,283.730 315.322,283.730 314.881 C 283.730 314.440,284.193 314.286,285.516 314.286 C 286.839 314.286,287.302 314.131,287.302 313.690 C 287.302 313.234,287.809 313.095,289.484 313.095 C 291.160 313.095,291.667 312.957,291.667 312.500 C 291.667 312.059,292.130 311.905,293.452 311.905 C 294.775 311.905,295.238 311.750,295.238 311.310 C 295.238 310.869,295.701 310.714,297.024 310.714 C 298.347 310.714,298.810 310.560,298.810 310.119 C 298.810 309.678,299.272 309.524,300.595 309.524 C 301.918 309.524,302.381 309.369,302.381 308.929 C 302.381 308.488,302.844 308.333,304.167 308.333 C 305.489 308.333,305.952 308.179,305.952 307.738 C 305.952 307.297,306.415 307.143,307.738 307.143 C 309.259 307.143,309.524 307.025,309.524 306.349 C 309.524 305.644,309.788 305.556,311.905 305.556 C 313.757 305.556,314.286 305.423,314.286 304.960 C 314.286 304.519,314.749 304.365,316.071 304.365 C 317.394 304.365,317.857 304.211,317.857 303.770 C 317.857 303.340,318.298 303.175,319.444 303.175 C 320.591 303.175,321.032 303.009,321.032 302.579 C 321.032 302.138,321.495 301.984,322.817 301.984 C 324.140 301.984,324.603 301.830,324.603 301.389 C 324.603 300.948,325.066 300.794,326.389 300.794 C 327.712 300.794,328.175 300.639,328.175 300.198 C 328.175 299.757,328.638 299.603,329.960 299.603 C 331.283 299.603,331.746 299.449,331.746 299.008 C 331.746 298.545,332.275 298.413,334.127 298.413 C 335.979 298.413,336.508 298.280,336.508 297.817 C 336.508 297.377,336.971 297.222,338.294 297.222 C 339.616 297.222,340.079 297.068,340.079 296.627 C 340.079 296.186,340.542 296.032,341.865 296.032 C 343.188 296.032,343.651 295.877,343.651 295.437 C 343.651 294.996,344.114 294.841,345.437 294.841 C 346.958 294.841,347.222 294.724,347.222 294.048 C 347.222 293.386,347.487 293.254,348.810 293.254 C 349.956 293.254,350.397 293.089,350.397 292.659 C 350.397 292.218,350.860 292.063,352.183 292.063 C 353.505 292.063,353.968 291.909,353.968 291.468 C 353.968 291.049,354.393 290.873,355.406 290.873 C 356.901 290.873,359.303 288.719,360.670 286.154 C 360.973 285.585,361.911 284.364,362.753 283.441 C 363.596 282.519,364.286 281.587,364.286 281.371 C 364.286 281.155,365.089 280.074,366.071 278.968 C 367.054 277.862,367.857 276.781,367.857 276.565 C 367.857 276.349,368.548 275.418,369.391 274.495 C 370.235 273.572,371.201 272.282,371.538 271.627 C 371.876 270.972,372.703 269.912,373.377 269.271 C 374.052 268.630,374.603 267.778,374.603 267.377 C 374.603 266.977,375.317 265.874,376.190 264.927 C 378.093 262.863,378.122 262.698,376.587 262.698 C 375.794 262.698,375.397 262.897,375.397 263.294 " stroke="none" fill="#146ce4" fill-rule="evenodd"></path><path id="path2" d="M105.555 137.168 C 46.373 216.076,2.473 274.960,1.786 276.354 C 0.614 278.732,0.593 278.882,0.472 286.010 L 0.348 293.249 1.646 295.732 C 3.385 299.055,8.947 304.653,11.957 306.109 C 16.807 308.455,12.218 308.323,89.347 308.329 L 160.241 308.333 162.047 306.052 C 164.033 303.543,166.694 300.071,169.444 296.400 C 170.427 295.089,172.034 292.956,173.016 291.659 C 173.998 290.363,175.605 288.212,176.587 286.881 C 177.569 285.550,178.923 283.805,179.595 283.004 C 180.267 282.203,181.388 280.744,182.086 279.762 C 182.784 278.780,184.239 276.815,185.319 275.397 C 186.400 273.978,188.009 271.835,188.894 270.635 C 191.344 267.314,193.605 264.317,196.230 260.910 C 197.540 259.210,198.968 257.321,199.405 256.712 C 199.841 256.103,202.812 252.157,206.007 247.941 C 217.733 232.471,223.419 224.963,231.345 214.484 C 235.802 208.591,239.666 203.591,239.931 203.373 C 240.753 202.695,246.180 194.085,248.936 189.087 C 276.256 139.537,271.753 75.339,237.772 29.936 C 229.573 18.981,211.196 0.397,208.562 0.397 C 208.327 0.397,161.974 61.944,105.555 137.168 M313.095 348.214 C 313.095 348.655,312.632 348.810,311.310 348.810 C 309.987 348.810,309.524 348.964,309.524 349.405 C 309.524 349.846,309.061 350.000,307.738 350.000 C 306.415 350.000,305.952 350.154,305.952 350.595 C 305.952 351.036,305.489 351.190,304.167 351.190 C 302.844 351.190,302.381 351.345,302.381 351.786 C 302.381 352.227,301.918 352.381,300.595 352.381 C 299.272 352.381,298.810 352.535,298.810 352.976 C 298.810 353.417,298.347 353.571,297.024 353.571 C 295.701 353.571,295.238 353.726,295.238 354.167 C 295.238 354.630,294.709 354.762,292.857 354.762 C 290.741 354.762,290.476 354.850,290.476 355.556 C 290.476 356.217,290.212 356.349,288.889 356.349 C 287.743 356.349,287.302 356.515,287.302 356.944 C 287.302 357.385,286.839 357.540,285.516 357.540 C 284.193 357.540,283.730 357.694,283.730 358.135 C 283.730 358.576,283.267 358.730,281.944 358.730 C 280.622 358.730,280.159 358.884,280.159 359.325 C 280.159 359.766,279.696 359.921,278.373 359.921 C 277.050 359.921,276.587 360.075,276.587 360.516 C 276.587 360.957,276.124 361.111,274.802 361.111 C 273.479 361.111,273.016 361.265,273.016 361.706 C 273.016 362.169,272.487 362.302,270.635 362.302 C 268.783 362.302,268.254 362.434,268.254 362.897 C 268.254 363.338,267.791 363.492,266.468 363.492 C 265.146 363.492,264.683 363.646,264.683 364.087 C 264.683 364.528,264.220 364.683,262.897 364.683 C 261.574 364.683,261.111 364.837,261.111 365.278 C 261.111 365.708,260.670 365.873,259.524 365.873 C 258.377 365.873,257.937 366.038,257.937 366.468 C 257.937 366.909,257.474 367.063,256.151 367.063 C 254.630 367.063,254.365 367.181,254.365 367.857 C 254.365 368.533,254.101 368.651,252.579 368.651 C 251.257 368.651,250.794 368.805,250.794 369.246 C 250.794 369.687,250.331 369.841,249.008 369.841 C 247.685 369.841,247.222 369.996,247.222 370.437 C 247.222 370.899,246.693 371.032,244.841 371.032 C 242.989 371.032,242.460 371.164,242.460 371.627 C 242.460 372.068,241.997 372.222,240.675 372.222 C 239.352 372.222,238.889 372.377,238.889 372.817 C 238.889 373.258,238.426 373.413,237.103 373.413 C 235.780 373.413,235.317 373.567,235.317 374.008 C 235.317 374.449,234.854 374.603,233.532 374.603 C 232.209 374.603,231.746 374.757,231.746 375.198 C 231.746 375.628,231.305 375.794,230.159 375.794 C 229.012 375.794,228.571 375.959,228.571 376.389 C 228.571 376.830,228.108 376.984,226.786 376.984 C 225.463 376.984,225.000 377.138,225.000 377.579 C 225.000 378.042,224.471 378.175,222.619 378.175 C 220.767 378.175,220.238 378.307,220.238 378.770 C 220.238 379.211,219.775 379.365,218.452 379.365 C 216.931 379.365,216.667 379.483,216.667 380.159 C 216.667 380.835,216.402 380.952,214.881 380.952 C 213.558 380.952,213.095 381.107,213.095 381.548 C 213.095 381.989,212.632 382.143,211.310 382.143 C 209.987 382.143,209.524 382.297,209.524 382.738 C 209.524 383.179,209.061 383.333,207.738 383.333 C 206.415 383.333,205.952 383.488,205.952 383.929 C 205.952 384.369,205.489 384.524,204.167 384.524 C 202.844 384.524,202.381 384.678,202.381 385.119 C 202.381 385.576,201.874 385.714,200.198 385.714 C 198.523 385.714,198.016 385.853,198.016 386.310 C 198.016 386.750,197.553 386.905,196.230 386.905 C 194.907 386.905,194.444 387.059,194.444 387.500 C 194.444 387.941,193.981 388.095,192.659 388.095 C 191.336 388.095,190.873 388.250,190.873 388.690 C 190.873 389.131,190.410 389.286,189.087 389.286 C 187.765 389.286,187.302 389.440,187.302 389.881 C 187.302 390.322,186.839 390.476,185.516 390.476 C 184.193 390.476,183.730 390.631,183.730 391.071 C 183.730 391.512,183.267 391.667,181.944 391.667 C 180.423 391.667,180.159 391.784,180.159 392.460 C 180.159 393.166,179.894 393.254,177.778 393.254 C 175.926 393.254,175.397 393.386,175.397 393.849 C 175.397 394.290,174.934 394.444,173.611 394.444 C 172.288 394.444,171.825 394.599,171.825 395.040 C 171.825 395.470,171.384 395.635,170.238 395.635 C 169.092 395.635,168.651 395.800,168.651 396.230 C 168.651 396.671,168.188 396.825,166.865 396.825 C 165.542 396.825,165.079 396.980,165.079 397.421 C 165.079 397.862,164.616 398.016,163.294 398.016 C 161.971 398.016,161.508 398.170,161.508 398.611 C 161.508 399.052,161.045 399.206,159.722 399.206 C 158.399 399.206,157.937 399.361,157.937 399.802 C 157.937 400.243,157.474 400.397,156.151 400.397 C 154.828 400.397,154.365 400.551,154.365 400.992 C 154.365 401.455,153.836 401.587,151.984 401.587 C 150.132 401.587,149.603 401.720,149.603 402.183 C 149.603 402.623,149.140 402.778,147.817 402.778 C 146.495 402.778,146.032 402.932,146.032 403.373 C 146.032 403.814,145.569 403.968,144.246 403.968 C 142.725 403.968,142.460 404.086,142.460 404.762 C 142.460 405.423,142.196 405.556,140.873 405.556 C 139.727 405.556,139.286 405.721,139.286 406.151 C 139.286 406.592,138.823 406.746,137.500 406.746 C 136.177 406.746,135.714 406.900,135.714 407.341 C 135.714 407.731,135.324 407.937,134.585 407.937 L 133.456 407.937 133.200 413.194 C 132.986 417.599,133.041 418.524,133.536 418.893 C 133.956 419.206,134.127 420.096,134.127 421.968 C 134.127 424.046,134.253 424.603,134.722 424.603 C 135.207 424.603,135.317 425.265,135.317 428.175 C 135.317 431.085,135.428 431.746,135.913 431.746 C 136.354 431.746,136.508 432.209,136.508 433.532 C 136.508 434.854,136.662 435.317,137.103 435.317 C 137.566 435.317,137.698 435.847,137.698 437.698 C 137.698 439.550,137.831 440.079,138.294 440.079 C 138.735 440.079,138.889 440.542,138.889 441.865 C 138.889 443.188,139.043 443.651,139.484 443.651 C 139.925 443.651,140.079 444.114,140.079 445.437 C 140.079 446.759,140.234 447.222,140.675 447.222 C 141.104 447.222,141.270 447.663,141.270 448.810 C 141.270 449.956,141.435 450.397,141.865 450.397 C 142.262 450.397,142.460 450.794,142.460 451.587 C 142.460 452.381,142.659 452.778,143.056 452.778 C 143.496 452.778,143.651 453.241,143.651 454.563 C 143.651 455.886,143.805 456.349,144.246 456.349 C 144.643 456.349,144.841 456.746,144.841 457.540 C 144.841 458.333,145.040 458.730,145.437 458.730 C 145.833 458.730,146.032 459.127,146.032 459.921 C 146.032 460.714,146.230 461.111,146.627 461.111 C 147.024 461.111,147.222 461.508,147.222 462.302 C 147.222 463.095,147.421 463.492,147.817 463.492 C 148.214 463.492,148.413 463.889,148.413 464.683 C 148.413 465.476,148.611 465.873,149.008 465.873 C 149.405 465.873,149.603 466.270,149.603 467.063 C 149.603 467.857,149.802 468.254,150.198 468.254 C 150.595 468.254,150.794 468.651,150.794 469.444 C 150.794 470.177,150.999 470.635,151.327 470.635 C 152.177 470.635,153.175 471.991,153.175 473.146 C 153.175 473.770,153.394 474.206,153.708 474.206 C 154.530 474.206,155.556 475.548,155.556 476.624 C 155.556 477.245,155.874 477.729,156.448 477.981 C 157.061 478.250,157.380 478.778,157.466 479.663 C 157.543 480.462,157.807 480.952,158.160 480.952 C 158.529 480.952,158.730 481.373,158.730 482.143 C 158.730 482.849,158.938 483.333,159.241 483.333 C 160.236 483.333,163.492 487.067,163.492 488.208 C 163.492 488.979,163.694 489.286,164.203 489.286 C 165.458 489.286,168.254 492.514,168.254 493.963 C 168.254 494.946,168.425 495.238,168.999 495.238 C 169.409 495.238,169.977 495.519,170.262 495.862 C 170.547 496.206,171.417 496.818,172.196 497.224 C 172.974 497.629,176.915 501.289,180.952 505.356 C 187.191 511.641,190.333 514.394,190.612 513.819 C 190.647 513.748,190.903 513.333,191.182 512.897 C 191.461 512.460,191.997 511.586,192.372 510.953 C 192.748 510.321,193.814 508.931,194.742 507.865 C 195.670 506.798,196.429 505.759,196.429 505.556 C 196.429 505.352,197.232 504.280,198.214 503.175 C 199.196 502.069,200.000 500.997,200.000 500.794 C 200.000 500.590,200.804 499.519,201.786 498.413 C 202.768 497.307,203.571 496.235,203.571 496.032 C 203.571 495.828,204.375 494.757,205.357 493.651 C 206.339 492.545,207.143 491.474,207.143 491.270 C 207.143 491.066,207.946 489.995,208.929 488.889 C 209.911 487.783,210.714 486.702,210.714 486.486 C 210.714 486.270,211.403 485.338,212.245 484.416 C 213.087 483.493,214.008 482.292,214.292 481.746 C 214.576 481.200,215.138 480.520,215.541 480.234 C 215.945 479.948,216.565 479.144,216.920 478.448 C 217.276 477.752,218.257 476.428,219.101 475.505 C 219.945 474.582,220.635 473.651,220.635 473.435 C 220.635 473.219,221.438 472.138,222.421 471.032 C 223.403 469.926,224.206 468.854,224.206 468.651 C 224.206 468.447,225.010 467.376,225.992 466.270 C 226.974 465.164,227.778 464.093,227.778 463.889 C 227.778 463.685,228.581 462.614,229.563 461.508 C 230.546 460.402,231.349 459.331,231.349 459.127 C 231.349 458.923,232.153 457.852,233.135 456.746 C 234.117 455.640,234.921 454.569,234.921 454.365 C 234.921 454.161,235.724 453.090,236.706 451.984 C 237.688 450.878,238.492 449.807,238.492 449.603 C 238.492 449.399,239.296 448.328,240.278 447.222 C 241.260 446.116,242.063 445.045,242.063 444.841 C 242.063 444.638,242.867 443.566,243.849 442.460 C 244.831 441.354,245.635 440.283,245.635 440.079 C 245.635 439.876,246.438 438.804,247.421 437.698 C 248.403 436.593,249.206 435.521,249.206 435.317 C 249.206 435.114,250.010 434.042,250.992 432.937 C 251.974 431.831,252.778 430.759,252.778 430.556 C 252.778 430.352,253.581 429.280,254.563 428.175 C 255.546 427.069,256.349 425.997,256.349 425.794 C 256.349 425.590,257.153 424.519,258.135 423.413 C 259.117 422.307,259.921 421.240,259.921 421.043 C 259.921 420.845,260.635 419.858,261.508 418.849 C 262.381 417.841,263.095 416.853,263.095 416.656 C 263.095 416.458,263.899 415.392,264.881 414.286 C 265.863 413.180,266.667 412.108,266.667 411.905 C 266.667 411.701,267.470 410.630,268.452 409.524 C 269.435 408.418,270.238 407.347,270.238 407.143 C 270.238 406.939,271.042 405.868,272.024 404.762 C 273.006 403.656,273.810 402.585,273.810 402.381 C 273.810 402.177,274.613 401.106,275.595 400.000 C 276.577 398.894,277.381 397.823,277.381 397.619 C 277.381 397.415,278.185 396.344,279.167 395.238 C 280.149 394.132,280.952 393.061,280.952 392.857 C 280.952 392.653,281.756 391.582,282.738 390.476 C 283.720 389.370,284.524 388.299,284.524 388.095 C 284.524 387.892,285.327 386.820,286.310 385.714 C 287.292 384.608,288.095 383.537,288.095 383.333 C 288.095 383.130,288.854 382.091,289.782 381.024 C 290.709 379.958,291.825 378.493,292.262 377.770 C 294.125 374.682,294.722 373.834,296.131 372.277 C 296.949 371.373,297.619 370.465,297.619 370.261 C 297.619 370.057,298.333 369.064,299.206 368.056 C 300.079 367.047,300.794 366.060,300.794 365.862 C 300.794 365.664,301.597 364.598,302.579 363.492 C 303.562 362.386,304.365 361.305,304.365 361.089 C 304.365 360.873,305.055 359.942,305.899 359.019 C 306.743 358.096,307.709 356.806,308.046 356.151 C 308.383 355.496,309.205 354.442,309.871 353.808 C 310.538 353.175,310.989 352.505,310.875 352.320 C 310.761 352.135,310.867 351.984,311.111 351.984 C 311.355 351.984,311.444 351.806,311.310 351.587 C 311.175 351.369,311.283 351.190,311.551 351.190 C 311.818 351.190,311.937 351.090,311.814 350.968 C 311.692 350.845,312.331 350.046,313.236 349.192 C 314.711 347.799,314.789 347.638,313.988 347.629 C 313.455 347.623,313.095 347.859,313.095 348.214 " stroke="none" fill="#2483fc" fill-rule="evenodd"></path><path id="path3" d="M353.968 291.468 C 353.968 291.909,353.505 292.063,352.183 292.063 C 350.860 292.063,350.397 292.218,350.397 292.659 C 350.397 293.089,349.956 293.254,348.810 293.254 C 347.487 293.254,347.222 293.386,347.222 294.048 C 347.222 294.724,346.958 294.841,345.437 294.841 C 344.114 294.841,343.651 294.996,343.651 295.437 C 343.651 295.877,343.188 296.032,341.865 296.032 C 340.542 296.032,340.079 296.186,340.079 296.627 C 340.079 297.068,339.616 297.222,338.294 297.222 C 336.971 297.222,336.508 297.377,336.508 297.817 C 336.508 298.280,335.979 298.413,334.127 298.413 C 332.275 298.413,331.746 298.545,331.746 299.008 C 331.746 299.449,331.283 299.603,329.960 299.603 C 328.638 299.603,328.175 299.757,328.175 300.198 C 328.175 300.639,327.712 300.794,326.389 300.794 C 325.066 300.794,324.603 300.948,324.603 301.389 C 324.603 301.830,324.140 301.984,322.817 301.984 C 321.495 301.984,321.032 302.138,321.032 302.579 C 321.032 303.009,320.591 303.175,319.444 303.175 C 318.298 303.175,317.857 303.340,317.857 303.770 C 317.857 304.211,317.394 304.365,316.071 304.365 C 314.749 304.365,314.286 304.519,314.286 304.960 C 314.286 305.423,313.757 305.556,311.905 305.556 C 309.788 305.556,309.524 305.644,309.524 306.349 C 309.524 307.025,309.259 307.143,307.738 307.143 C 306.415 307.143,305.952 307.297,305.952 307.738 C 305.952 308.179,305.489 308.333,304.167 308.333 C 302.844 308.333,302.381 308.488,302.381 308.929 C 302.381 309.369,301.918 309.524,300.595 309.524 C 299.272 309.524,298.810 309.678,298.810 310.119 C 298.810 310.560,298.347 310.714,297.024 310.714 C 295.701 310.714,295.238 310.869,295.238 311.310 C 295.238 311.750,294.775 311.905,293.452 311.905 C 292.130 311.905,291.667 312.059,291.667 312.500 C 291.667 312.957,291.160 313.095,289.484 313.095 C 287.809 313.095,287.302 313.234,287.302 313.690 C 287.302 314.131,286.839 314.286,285.516 314.286 C 284.193 314.286,283.730 314.440,283.730 314.881 C 283.730 315.322,283.267 315.476,281.944 315.476 C 280.622 315.476,280.159 315.631,280.159 316.071 C 280.159 316.512,279.696 316.667,278.373 316.667 C 277.050 316.667,276.587 316.821,276.587 317.262 C 276.587 317.703,276.124 317.857,274.802 317.857 C 273.280 317.857,273.016 317.975,273.016 318.651 C 273.016 319.327,272.751 319.444,271.230 319.444 C 269.907 319.444,269.444 319.599,269.444 320.040 C 269.444 320.481,268.981 320.635,267.659 320.635 C 266.336 320.635,265.873 320.789,265.873 321.230 C 265.873 321.693,265.344 321.825,263.492 321.825 C 261.640 321.825,261.111 321.958,261.111 322.421 C 261.111 322.851,260.670 323.016,259.524 323.016 C 258.377 323.016,257.937 323.181,257.937 323.611 C 257.937 324.052,257.474 324.206,256.151 324.206 C 254.828 324.206,254.365 324.361,254.365 324.802 C 254.365 325.243,253.902 325.397,252.579 325.397 C 251.257 325.397,250.794 325.551,250.794 325.992 C 250.794 326.433,250.331 326.587,249.008 326.587 C 247.685 326.587,247.222 326.742,247.222 327.183 C 247.222 327.623,246.759 327.778,245.437 327.778 C 244.114 327.778,243.651 327.932,243.651 328.373 C 243.651 328.836,243.122 328.968,241.270 328.968 C 239.418 328.968,238.889 329.101,238.889 329.563 C 238.889 330.004,238.426 330.159,237.103 330.159 C 235.582 330.159,235.317 330.276,235.317 330.952 C 235.317 331.628,235.053 331.746,233.532 331.746 C 232.209 331.746,231.746 331.900,231.746 332.341 C 231.746 332.771,231.305 332.937,230.159 332.937 C 229.012 332.937,228.571 333.102,228.571 333.532 C 228.571 333.973,228.108 334.127,226.786 334.127 C 225.463 334.127,225.000 334.281,225.000 334.722 C 225.000 335.163,224.537 335.317,223.214 335.317 C 221.892 335.317,221.429 335.472,221.429 335.913 C 221.429 336.376,220.899 336.508,219.048 336.508 C 217.196 336.508,216.667 336.640,216.667 337.103 C 216.667 337.544,216.204 337.698,214.881 337.698 C 213.558 337.698,213.095 337.853,213.095 338.294 C 213.095 338.735,212.632 338.889,211.310 338.889 C 209.987 338.889,209.524 339.043,209.524 339.484 C 209.524 339.925,209.061 340.079,207.738 340.079 C 206.415 340.079,205.952 340.234,205.952 340.675 C 205.952 341.116,205.489 341.270,204.167 341.270 C 202.844 341.270,202.381 341.424,202.381 341.865 C 202.381 342.295,201.940 342.460,200.794 342.460 C 199.471 342.460,199.206 342.593,199.206 343.254 C 199.206 343.959,198.942 344.048,196.825 344.048 C 194.974 344.048,194.444 344.180,194.444 344.643 C 194.444 345.084,193.981 345.238,192.659 345.238 C 191.336 345.238,190.873 345.392,190.873 345.833 C 190.873 346.274,190.410 346.429,189.087 346.429 C 187.765 346.429,187.302 346.583,187.302 347.024 C 187.302 347.465,186.839 347.619,185.516 347.619 C 184.193 347.619,183.730 347.773,183.730 348.214 C 183.730 348.655,183.267 348.810,181.944 348.810 C 180.622 348.810,180.159 348.964,180.159 349.405 C 180.159 349.846,179.696 350.000,178.373 350.000 C 177.050 350.000,176.587 350.154,176.587 350.595 C 176.587 351.036,176.124 351.190,174.802 351.190 C 173.479 351.190,173.016 351.345,173.016 351.786 C 173.016 352.243,172.509 352.381,170.833 352.381 C 169.158 352.381,168.651 352.519,168.651 352.976 C 168.651 353.417,168.188 353.571,166.865 353.571 C 165.542 353.571,165.079 353.726,165.079 354.167 C 165.079 354.608,164.616 354.762,163.294 354.762 C 161.772 354.762,161.508 354.879,161.508 355.556 C 161.508 356.232,161.243 356.349,159.722 356.349 C 158.399 356.349,157.937 356.504,157.937 356.944 C 157.937 357.385,157.474 357.540,156.151 357.540 C 154.828 357.540,154.365 357.694,154.365 358.135 C 154.365 358.576,153.902 358.730,152.579 358.730 C 151.257 358.730,150.794 358.884,150.794 359.325 C 150.794 359.788,150.265 359.921,148.413 359.921 C 146.561 359.921,146.032 360.053,146.032 360.516 C 146.032 360.957,145.569 361.111,144.246 361.111 C 142.923 361.111,142.460 361.265,142.460 361.706 C 142.460 362.136,142.019 362.302,140.873 362.302 C 139.727 362.302,139.286 362.467,139.286 362.897 C 139.286 363.338,138.823 363.492,137.500 363.492 C 136.224 363.492,135.714 363.653,135.714 364.054 C 135.714 364.363,135.524 364.680,135.292 364.757 C 135.061 364.834,134.811 365.340,134.739 365.881 C 134.667 366.422,134.309 368.103,133.945 369.616 C 131.929 377.985,130.683 407.143,132.341 407.143 C 132.826 407.143,132.952 407.896,133.019 411.210 L 133.101 415.278 133.232 411.607 L 133.363 407.937 134.539 407.937 C 135.319 407.937,135.714 407.736,135.714 407.341 C 135.714 406.900,136.177 406.746,137.500 406.746 C 138.823 406.746,139.286 406.592,139.286 406.151 C 139.286 405.721,139.727 405.556,140.873 405.556 C 142.196 405.556,142.460 405.423,142.460 404.762 C 142.460 404.086,142.725 403.968,144.246 403.968 C 145.569 403.968,146.032 403.814,146.032 403.373 C 146.032 402.932,146.495 402.778,147.817 402.778 C 149.140 402.778,149.603 402.623,149.603 402.183 C 149.603 401.720,150.132 401.587,151.984 401.587 C 153.836 401.587,154.365 401.455,154.365 400.992 C 154.365 400.551,154.828 400.397,156.151 400.397 C 157.474 400.397,157.937 400.243,157.937 399.802 C 157.937 399.361,158.399 399.206,159.722 399.206 C 161.045 399.206,161.508 399.052,161.508 398.611 C 161.508 398.170,161.971 398.016,163.294 398.016 C 164.616 398.016,165.079 397.862,165.079 397.421 C 165.079 396.980,165.542 396.825,166.865 396.825 C 168.188 396.825,168.651 396.671,168.651 396.230 C 168.651 395.800,169.092 395.635,170.238 395.635 C 171.384 395.635,171.825 395.470,171.825 395.040 C 171.825 394.599,172.288 394.444,173.611 394.444 C 174.934 394.444,175.397 394.290,175.397 393.849 C 175.397 393.386,175.926 393.254,177.778 393.254 C 179.894 393.254,180.159 393.166,180.159 392.460 C 180.159 391.784,180.423 391.667,181.944 391.667 C 183.267 391.667,183.730 391.512,183.730 391.071 C 183.730 390.631,184.193 390.476,185.516 390.476 C 186.839 390.476,187.302 390.322,187.302 389.881 C 187.302 389.440,187.765 389.286,189.087 389.286 C 190.410 389.286,190.873 389.131,190.873 388.690 C 190.873 388.250,191.336 388.095,192.659 388.095 C 193.981 388.095,194.444 387.941,194.444 387.500 C 194.444 387.059,194.907 386.905,196.230 386.905 C 197.553 386.905,198.016 386.750,198.016 386.310 C 198.016 385.853,198.523 385.714,200.198 385.714 C 201.874 385.714,202.381 385.576,202.381 385.119 C 202.381 384.678,202.844 384.524,204.167 384.524 C 205.489 384.524,205.952 384.369,205.952 383.929 C 205.952 383.488,206.415 383.333,207.738 383.333 C 209.061 383.333,209.524 383.179,209.524 382.738 C 209.524 382.297,209.987 382.143,211.310 382.143 C 212.632 382.143,213.095 381.989,213.095 381.548 C 213.095 381.107,213.558 380.952,214.881 380.952 C 216.402 380.952,216.667 380.835,216.667 380.159 C 216.667 379.483,216.931 379.365,218.452 379.365 C 219.775 379.365,220.238 379.211,220.238 378.770 C 220.238 378.307,220.767 378.175,222.619 378.175 C 224.471 378.175,225.000 378.042,225.000 377.579 C 225.000 377.138,225.463 376.984,226.786 376.984 C 228.108 376.984,228.571 376.830,228.571 376.389 C 228.571 375.959,229.012 375.794,230.159 375.794 C 231.305 375.794,231.746 375.628,231.746 375.198 C 231.746 374.757,232.209 374.603,233.532 374.603 C 234.854 374.603,235.317 374.449,235.317 374.008 C 235.317 373.567,235.780 373.413,237.103 373.413 C 238.426 373.413,238.889 373.258,238.889 372.817 C 238.889 372.377,239.352 372.222,240.675 372.222 C 241.997 372.222,242.460 372.068,242.460 371.627 C 242.460 371.164,242.989 371.032,244.841 371.032 C 246.693 371.032,247.222 370.899,247.222 370.437 C 247.222 369.996,247.685 369.841,249.008 369.841 C 250.331 369.841,250.794 369.687,250.794 369.246 C 250.794 368.805,251.257 368.651,252.579 368.651 C 254.101 368.651,254.365 368.533,254.365 367.857 C 254.365 367.181,254.630 367.063,256.151 367.063 C 257.474 367.063,257.937 366.909,257.937 366.468 C 257.937 366.038,258.377 365.873,259.524 365.873 C 260.670 365.873,261.111 365.708,261.111 365.278 C 261.111 364.837,261.574 364.683,262.897 364.683 C 264.220 364.683,264.683 364.528,264.683 364.087 C 264.683 363.646,265.146 363.492,266.468 363.492 C 267.791 363.492,268.254 363.338,268.254 362.897 C 268.254 362.434,268.783 362.302,270.635 362.302 C 272.487 362.302,273.016 362.169,273.016 361.706 C 273.016 361.265,273.479 361.111,274.802 361.111 C 276.124 361.111,276.587 360.957,276.587 360.516 C 276.587 360.075,277.050 359.921,278.373 359.921 C 279.696 359.921,280.159 359.766,280.159 359.325 C 280.159 358.884,280.622 358.730,281.944 358.730 C 283.267 358.730,283.730 358.576,283.730 358.135 C 283.730 357.694,284.193 357.540,285.516 357.540 C 286.839 357.540,287.302 357.385,287.302 356.944 C 287.302 356.515,287.743 356.349,288.889 356.349 C 290.212 356.349,290.476 356.217,290.476 355.556 C 290.476 354.850,290.741 354.762,292.857 354.762 C 294.709 354.762,295.238 354.630,295.238 354.167 C 295.238 353.726,295.701 353.571,297.024 353.571 C 298.347 353.571,298.810 353.417,298.810 352.976 C 298.810 352.535,299.272 352.381,300.595 352.381 C 301.918 352.381,302.381 352.227,302.381 351.786 C 302.381 351.345,302.844 351.190,304.167 351.190 C 305.489 351.190,305.952 351.036,305.952 350.595 C 305.952 350.154,306.415 350.000,307.738 350.000 C 309.061 350.000,309.524 349.846,309.524 349.405 C 309.524 348.964,309.987 348.810,311.310 348.810 C 312.632 348.810,313.095 348.655,313.095 348.214 C 313.095 347.887,313.385 347.619,313.740 347.619 C 314.436 347.619,317.314 344.580,318.210 342.900 C 318.513 342.331,319.450 341.110,320.293 340.187 C 321.136 339.265,321.825 338.333,321.825 338.117 C 321.825 337.902,322.629 336.820,323.611 335.714 C 324.593 334.608,325.397 333.537,325.397 333.333 C 325.397 333.130,326.200 332.058,327.183 330.952 C 328.165 329.847,328.968 328.775,328.968 328.571 C 328.968 328.368,329.772 327.296,330.754 326.190 C 331.736 325.085,332.540 324.013,332.540 323.810 C 332.540 323.606,333.343 322.534,334.325 321.429 C 335.308 320.323,336.111 319.251,336.111 319.048 C 336.111 318.844,336.915 317.773,337.897 316.667 C 338.879 315.561,339.683 314.489,339.683 314.286 C 339.683 314.082,340.486 313.011,341.468 311.905 C 342.450 310.799,343.254 309.727,343.254 309.524 C 343.254 309.320,344.058 308.249,345.040 307.143 C 346.022 306.037,346.825 304.966,346.825 304.762 C 346.825 304.558,347.629 303.487,348.611 302.381 C 349.593 301.275,350.397 300.209,350.397 300.011 C 350.397 299.813,351.098 298.842,351.954 297.852 C 352.810 296.863,353.635 295.662,353.787 295.183 C 353.939 294.705,354.582 293.877,355.215 293.344 C 357.323 291.570,357.423 290.873,355.570 290.873 C 354.411 290.873,353.968 291.037,353.968 291.468 M312.791 349.615 C 312.079 350.263,311.643 350.794,311.824 350.794 C 312.005 350.794,312.666 350.258,313.294 349.603 C 314.752 348.081,314.471 348.087,312.791 349.615 M309.300 354.464 L 308.135 355.754 309.425 354.588 C 310.134 353.947,310.714 353.367,310.714 353.299 C 310.714 352.992,310.387 353.262,309.300 354.464 M305.729 359.226 L 304.563 360.516 305.853 359.350 C 306.563 358.709,307.143 358.129,307.143 358.061 C 307.143 357.754,306.815 358.024,305.729 359.226 " stroke="none" fill="#146fec" fill-rule="evenodd"></path><path id="path4" d="M395.238 235.119 C 395.238 235.560,394.775 235.714,393.452 235.714 C 392.130 235.714,391.667 235.869,391.667 236.310 C 391.667 236.750,391.204 236.905,389.881 236.905 C 388.558 236.905,388.095 237.059,388.095 237.500 C 388.095 237.941,387.632 238.095,386.310 238.095 C 384.987 238.095,384.524 238.250,384.524 238.690 C 384.524 239.131,384.061 239.286,382.738 239.286 C 381.415 239.286,380.952 239.440,380.952 239.881 C 380.952 240.338,380.445 240.476,378.770 240.476 C 377.094 240.476,376.587 240.614,376.587 241.071 C 376.587 241.512,376.124 241.667,374.802 241.667 C 373.479 241.667,373.016 241.821,373.016 242.262 C 373.016 242.703,372.553 242.857,371.230 242.857 C 369.907 242.857,369.444 243.011,369.444 243.452 C 369.444 243.893,368.981 244.048,367.659 244.048 C 366.138 244.048,365.873 244.165,365.873 244.841 C 365.873 245.517,365.608 245.635,364.087 245.635 C 362.765 245.635,362.302 245.789,362.302 246.230 C 362.302 246.671,361.839 246.825,360.516 246.825 C 359.193 246.825,358.730 246.980,358.730 247.421 C 358.730 247.862,358.267 248.016,356.944 248.016 C 355.622 248.016,355.159 248.170,355.159 248.611 C 355.159 249.074,354.630 249.206,352.778 249.206 C 350.926 249.206,350.397 249.339,350.397 249.802 C 350.397 250.231,349.956 250.397,348.810 250.397 C 347.663 250.397,347.222 250.562,347.222 250.992 C 347.222 251.433,346.759 251.587,345.437 251.587 C 344.114 251.587,343.651 251.742,343.651 252.183 C 343.651 252.623,343.188 252.778,341.865 252.778 C 340.542 252.778,340.079 252.932,340.079 253.373 C 340.079 253.814,339.616 253.968,338.294 253.968 C 336.971 253.968,336.508 254.123,336.508 254.563 C 336.508 255.004,336.045 255.159,334.722 255.159 C 333.399 255.159,332.937 255.313,332.937 255.754 C 332.937 256.217,332.407 256.349,330.556 256.349 C 328.439 256.349,328.175 256.437,328.175 257.143 C 328.175 257.819,327.910 257.937,326.389 257.937 C 325.066 257.937,324.603 258.091,324.603 258.532 C 324.603 258.973,324.140 259.127,322.817 259.127 C 321.495 259.127,321.032 259.281,321.032 259.722 C 321.032 260.152,320.591 260.317,319.444 260.317 C 318.298 260.317,317.857 260.483,317.857 260.913 C 317.857 261.354,317.394 261.508,316.071 261.508 C 314.749 261.508,314.286 261.662,314.286 262.103 C 314.286 262.544,313.823 262.698,312.500 262.698 C 311.177 262.698,310.714 262.853,310.714 263.294 C 310.714 263.757,310.185 263.889,308.333 263.889 C 306.481 263.889,305.952 264.021,305.952 264.484 C 305.952 264.925,305.489 265.079,304.167 265.079 C 302.844 265.079,302.381 265.234,302.381 265.675 C 302.381 266.116,301.918 266.270,300.595 266.270 C 299.272 266.270,298.810 266.424,298.810 266.865 C 298.810 267.306,298.347 267.460,297.024 267.460 C 295.701 267.460,295.238 267.615,295.238 268.056 C 295.238 268.496,294.775 268.651,293.452 268.651 C 291.931 268.651,291.667 268.768,291.667 269.444 C 291.667 270.106,291.402 270.238,290.079 270.238 C 288.933 270.238,288.492 270.403,288.492 270.833 C 288.492 271.274,288.029 271.429,286.706 271.429 C 285.384 271.429,284.921 271.583,284.921 272.024 C 284.921 272.487,284.392 272.619,282.540 272.619 C 280.688 272.619,280.159 272.751,280.159 273.214 C 280.159 273.655,279.696 273.810,278.373 273.810 C 277.050 273.810,276.587 273.964,276.587 274.405 C 276.587 274.846,276.124 275.000,274.802 275.000 C 273.479 275.000,273.016 275.154,273.016 275.595 C 273.016 276.036,272.553 276.190,271.230 276.190 C 269.907 276.190,269.444 276.345,269.444 276.786 C 269.444 277.227,268.981 277.381,267.659 277.381 C 266.336 277.381,265.873 277.535,265.873 277.976 C 265.873 278.417,265.410 278.571,264.087 278.571 C 262.765 278.571,262.302 278.726,262.302 279.167 C 262.302 279.624,261.795 279.762,260.119 279.762 C 258.444 279.762,257.937 279.900,257.937 280.357 C 257.937 280.798,257.474 280.952,256.151 280.952 C 254.630 280.952,254.365 281.070,254.365 281.746 C 254.365 282.422,254.101 282.540,252.579 282.540 C 251.257 282.540,250.794 282.694,250.794 283.135 C 250.794 283.576,250.331 283.730,249.008 283.730 C 247.685 283.730,247.222 283.884,247.222 284.325 C 247.222 284.766,246.759 284.921,245.437 284.921 C 244.114 284.921,243.651 285.075,243.651 285.516 C 243.651 285.957,243.188 286.111,241.865 286.111 C 240.542 286.111,240.079 286.265,240.079 286.706 C 240.079 287.169,239.550 287.302,237.698 287.302 C 235.847 287.302,235.317 287.434,235.317 287.897 C 235.317 288.338,234.854 288.492,233.532 288.492 C 232.209 288.492,231.746 288.646,231.746 289.087 C 231.746 289.517,231.305 289.683,230.159 289.683 C 229.012 289.683,228.571 289.848,228.571 290.278 C 228.571 290.719,228.108 290.873,226.786 290.873 C 225.463 290.873,225.000 291.027,225.000 291.468 C 225.000 291.909,224.537 292.063,223.214 292.063 C 221.892 292.063,221.429 292.218,221.429 292.659 C 221.429 293.100,220.966 293.254,219.643 293.254 C 218.122 293.254,217.857 293.372,217.857 294.048 C 217.857 294.753,217.593 294.841,215.476 294.841 C 213.624 294.841,213.095 294.974,213.095 295.437 C 213.095 295.877,212.632 296.032,211.310 296.032 C 209.987 296.032,209.524 296.186,209.524 296.627 C 209.524 297.068,209.061 297.222,207.738 297.222 C 206.415 297.222,205.952 297.377,205.952 297.817 C 205.952 298.258,205.489 298.413,204.167 298.413 C 202.844 298.413,202.381 298.567,202.381 299.008 C 202.381 299.438,201.940 299.603,200.794 299.603 C 199.647 299.603,199.206 299.769,199.206 300.198 C 199.206 300.639,198.743 300.794,197.421 300.794 C 196.098 300.794,195.635 300.948,195.635 301.389 C 195.635 301.830,195.172 301.984,193.849 301.984 C 192.526 301.984,192.063 302.138,192.063 302.579 C 192.063 303.042,191.534 303.175,189.683 303.175 C 187.831 303.175,187.302 303.307,187.302 303.770 C 187.302 304.211,186.839 304.365,185.516 304.365 C 184.193 304.365,183.730 304.519,183.730 304.960 C 183.730 305.401,183.267 305.556,181.944 305.556 C 180.423 305.556,180.159 305.673,180.159 306.349 C 180.159 307.025,179.894 307.143,178.373 307.143 C 177.050 307.143,176.587 307.297,176.587 307.738 C 176.587 308.179,176.124 308.333,174.802 308.333 C 173.479 308.333,173.016 308.488,173.016 308.929 C 173.016 309.358,172.575 309.524,171.429 309.524 C 170.282 309.524,169.841 309.689,169.841 310.119 C 169.841 310.582,169.312 310.714,167.460 310.714 C 165.608 310.714,165.079 310.847,165.079 311.310 C 165.079 311.750,164.616 311.905,163.294 311.905 C 161.971 311.905,161.508 312.059,161.508 312.500 C 161.508 312.941,161.045 313.095,159.722 313.095 C 158.399 313.095,157.937 313.250,157.937 313.690 C 157.937 314.059,157.563 314.286,156.955 314.286 C 156.247 314.286,155.788 314.646,155.312 315.575 C 154.948 316.285,154.215 317.387,153.683 318.024 C 153.151 318.661,151.457 321.697,149.918 324.770 C 148.380 327.843,146.714 330.843,146.216 331.436 C 145.718 332.030,145.002 333.458,144.624 334.611 C 144.247 335.763,143.606 337.369,143.200 338.179 C 142.247 340.076,142.248 340.079,143.651 340.079 C 144.444 340.079,144.841 339.881,144.841 339.484 C 144.841 339.043,145.304 338.889,146.627 338.889 C 147.950 338.889,148.413 338.735,148.413 338.294 C 148.413 337.853,148.876 337.698,150.198 337.698 C 151.521 337.698,151.984 337.544,151.984 337.103 C 151.984 336.662,152.447 336.508,153.770 336.508 C 155.093 336.508,155.556 336.354,155.556 335.913 C 155.556 335.450,156.085 335.317,157.937 335.317 C 159.788 335.317,160.317 335.185,160.317 334.722 C 160.317 334.281,160.780 334.127,162.103 334.127 C 163.426 334.127,163.889 333.973,163.889 333.532 C 163.889 333.091,164.352 332.937,165.675 332.937 C 166.997 332.937,167.460 332.782,167.460 332.341 C 167.460 331.911,167.901 331.746,169.048 331.746 C 170.370 331.746,170.635 331.614,170.635 330.952 C 170.635 330.276,170.899 330.159,172.421 330.159 C 173.743 330.159,174.206 330.004,174.206 329.563 C 174.206 329.123,174.669 328.968,175.992 328.968 C 177.315 328.968,177.778 328.814,177.778 328.373 C 177.778 327.910,178.307 327.778,180.159 327.778 C 182.011 327.778,182.540 327.646,182.540 327.183 C 182.540 326.742,183.003 326.587,184.325 326.587 C 185.648 326.587,186.111 326.433,186.111 325.992 C 186.111 325.551,186.574 325.397,187.897 325.397 C 189.220 325.397,189.683 325.243,189.683 324.802 C 189.683 324.361,190.146 324.206,191.468 324.206 C 192.791 324.206,193.254 324.052,193.254 323.611 C 193.254 323.170,193.717 323.016,195.040 323.016 C 196.362 323.016,196.825 322.862,196.825 322.421 C 196.825 321.991,197.266 321.825,198.413 321.825 C 199.559 321.825,200.000 321.660,200.000 321.230 C 200.000 320.789,200.463 320.635,201.786 320.635 C 203.108 320.635,203.571 320.481,203.571 320.040 C 203.571 319.577,204.101 319.444,205.952 319.444 C 208.069 319.444,208.333 319.356,208.333 318.651 C 208.333 317.975,208.598 317.857,210.119 317.857 C 211.442 317.857,211.905 317.703,211.905 317.262 C 211.905 316.821,212.368 316.667,213.690 316.667 C 215.013 316.667,215.476 316.512,215.476 316.071 C 215.476 315.631,215.939 315.476,217.262 315.476 C 218.585 315.476,219.048 315.322,219.048 314.881 C 219.048 314.440,219.511 314.286,220.833 314.286 C 222.156 314.286,222.619 314.131,222.619 313.690 C 222.619 313.250,223.082 313.095,224.405 313.095 C 225.728 313.095,226.190 312.941,226.190 312.500 C 226.190 312.043,226.698 311.905,228.373 311.905 C 230.049 311.905,230.556 311.766,230.556 311.310 C 230.556 310.869,231.019 310.714,232.341 310.714 C 233.664 310.714,234.127 310.560,234.127 310.119 C 234.127 309.678,234.590 309.524,235.913 309.524 C 237.235 309.524,237.698 309.369,237.698 308.929 C 237.698 308.488,238.161 308.333,239.484 308.333 C 240.807 308.333,241.270 308.179,241.270 307.738 C 241.270 307.297,241.733 307.143,243.056 307.143 C 244.577 307.143,244.841 307.025,244.841 306.349 C 244.841 305.673,245.106 305.556,246.627 305.556 C 247.950 305.556,248.413 305.401,248.413 304.960 C 248.413 304.497,248.942 304.365,250.794 304.365 C 252.646 304.365,253.175 304.233,253.175 303.770 C 253.175 303.329,253.638 303.175,254.960 303.175 C 256.283 303.175,256.746 303.020,256.746 302.579 C 256.746 302.149,257.187 301.984,258.333 301.984 C 259.480 301.984,259.921 301.819,259.921 301.389 C 259.921 300.948,260.384 300.794,261.706 300.794 C 263.029 300.794,263.492 300.639,263.492 300.198 C 263.492 299.757,263.955 299.603,265.278 299.603 C 266.601 299.603,267.063 299.449,267.063 299.008 C 267.063 298.567,267.526 298.413,268.849 298.413 C 270.172 298.413,270.635 298.258,270.635 297.817 C 270.635 297.354,271.164 297.222,273.016 297.222 C 274.868 297.222,275.397 297.090,275.397 296.627 C 275.397 296.186,275.860 296.032,277.183 296.032 C 278.505 296.032,278.968 295.877,278.968 295.437 C 278.968 294.996,279.431 294.841,280.754 294.841 C 282.275 294.841,282.540 294.724,282.540 294.048 C 282.540 293.372,282.804 293.254,284.325 293.254 C 285.648 293.254,286.111 293.100,286.111 292.659 C 286.111 292.218,286.574 292.063,287.897 292.063 C 289.220 292.063,289.683 291.909,289.683 291.468 C 289.683 291.038,290.123 290.873,291.270 290.873 C 292.416 290.873,292.857 290.708,292.857 290.278 C 292.857 289.837,293.320 289.683,294.643 289.683 C 295.966 289.683,296.429 289.528,296.429 289.087 C 296.429 288.624,296.958 288.492,298.810 288.492 C 300.661 288.492,301.190 288.360,301.190 287.897 C 301.190 287.456,301.653 287.302,302.976 287.302 C 304.299 287.302,304.762 287.147,304.762 286.706 C 304.762 286.265,305.225 286.111,306.548 286.111 C 307.870 286.111,308.333 285.957,308.333 285.516 C 308.333 285.075,308.796 284.921,310.119 284.921 C 311.442 284.921,311.905 284.766,311.905 284.325 C 311.905 283.884,312.368 283.730,313.690 283.730 C 315.013 283.730,315.476 283.576,315.476 283.135 C 315.476 282.694,315.939 282.540,317.262 282.540 C 318.783 282.540,319.048 282.422,319.048 281.746 C 319.048 281.049,319.312 280.952,321.230 280.952 C 322.906 280.952,323.413 280.814,323.413 280.357 C 323.413 279.916,323.876 279.762,325.198 279.762 C 326.521 279.762,326.984 279.608,326.984 279.167 C 326.984 278.726,327.447 278.571,328.770 278.571 C 330.093 278.571,330.556 278.417,330.556 277.976 C 330.556 277.535,331.019 277.381,332.341 277.381 C 333.664 277.381,334.127 277.227,334.127 276.786 C 334.127 276.345,334.590 276.190,335.913 276.190 C 337.235 276.190,337.698 276.036,337.698 275.595 C 337.698 275.154,338.161 275.000,339.484 275.000 C 340.807 275.000,341.270 274.846,341.270 274.405 C 341.270 273.942,341.799 273.810,343.651 273.810 C 345.503 273.810,346.032 273.677,346.032 273.214 C 346.032 272.773,346.495 272.619,347.817 272.619 C 349.140 272.619,349.603 272.465,349.603 272.024 C 349.603 271.594,350.044 271.429,351.190 271.429 C 352.337 271.429,352.778 271.263,352.778 270.833 C 352.778 270.392,353.241 270.238,354.563 270.238 C 356.085 270.238,356.349 270.121,356.349 269.444 C 356.349 268.768,356.614 268.651,358.135 268.651 C 359.458 268.651,359.921 268.496,359.921 268.056 C 359.921 267.615,360.384 267.460,361.706 267.460 C 363.029 267.460,363.492 267.306,363.492 266.865 C 363.492 266.424,363.955 266.270,365.278 266.270 C 366.601 266.270,367.063 266.116,367.063 265.675 C 367.063 265.212,367.593 265.079,369.444 265.079 C 371.296 265.079,371.825 264.947,371.825 264.484 C 371.825 264.043,372.288 263.889,373.611 263.889 C 374.934 263.889,375.397 263.735,375.397 263.294 C 375.397 262.897,375.794 262.698,376.587 262.698 C 378.122 262.698,378.093 262.863,376.190 264.927 C 375.317 265.874,374.609 266.876,374.615 267.154 C 374.622 267.432,374.828 267.302,375.073 266.865 C 375.318 266.429,376.206 265.316,377.045 264.394 C 377.885 263.471,378.571 262.540,378.571 262.324 C 378.571 262.108,379.375 261.026,380.357 259.921 C 381.339 258.815,382.143 257.743,382.143 257.540 C 382.143 257.336,382.946 256.265,383.929 255.159 C 384.911 254.053,385.714 252.986,385.714 252.789 C 385.714 252.591,386.429 251.604,387.302 250.595 C 388.175 249.587,388.889 248.600,388.889 248.402 C 388.889 248.204,389.648 247.170,390.575 246.103 C 391.503 245.037,392.574 243.647,392.955 243.015 C 393.336 242.382,394.178 241.062,394.827 240.079 C 395.475 239.097,396.461 237.445,397.018 236.409 L 398.029 234.524 396.634 234.524 C 395.658 234.524,395.238 234.703,395.238 235.119 M140.752 344.251 C 140.389 345.012,140.174 345.635,140.274 345.635 C 140.546 345.635,141.750 343.205,141.569 343.024 C 141.483 342.938,141.115 343.490,140.752 344.251 " stroke="none" fill="#1064e4" fill-rule="evenodd"></path></g></svg>