<svg xmlns="http://www.w3.org/2000/svg"  viewBox="0 0 24 24" width="24px" height="24px">
    <path fill-rule="evenodd" clip-rule="evenodd" d="M7.495 20.995L12 18.627l4.505 2.368a1.546 1.546 0 002.244-1.63l-.86-5.016 3.644-3.553a1.546 1.546 0 00-.857-2.638l-5.037-.732-2.252-4.564a1.547 1.547 0 00-2.774 0L8.361 7.426l-5.037.732a1.546 1.546 0 00-.857 2.638l3.645 3.553-.86 5.016a1.547 1.547 0 002.243 1.63zm11.85-10.947l-3.672 3.58.867 5.056L12 16.297l-4.54 2.387.867-5.055-3.673-3.58L9.73 9.31 12 4.71l2.27 4.6 5.076.738z" fill="rgb(107, 119, 140)">
    </path>
</svg>